<?xml version="1.0" encoding="UTF-8" standalone="no"?>
<svg width="376.767mm" height="196.85mm"
 viewBox="0 0 1424 744"
 xmlns="http://www.w3.org/2000/svg" xmlns:xlink="http://www.w3.org/1999/xlink"  version="1.2" baseProfile="tiny">
<title>Grafik1</title>
<desc>Generated with Qt</desc>
<defs>
</defs>
<g fill="none" stroke="black" stroke-width="1" fill-rule="evenodd" stroke-linecap="square" stroke-linejoin="bevel" >

<g fill="#ffffff" fill-opacity="1" stroke="none" transform="matrix(1,0,0,1,0,0)"
font-family="MS Shell Dlg 2" font-size="10.6667" font-weight="400" font-style="normal" 
>
<rect x="0" y="0" width="1424" height="744"/>
</g>

<g fill="none" stroke="#000000" stroke-opacity="1" stroke-width="1" stroke-linecap="square" stroke-linejoin="bevel" transform="matrix(1,0,0,1,0,0)"
font-family="MS Shell Dlg 2" font-size="10.6667" font-weight="400" font-style="normal" 
>
</g>

<g fill="#ffffff" fill-opacity="1" stroke="none" transform="matrix(1,0,0,1,0,0)"
font-family="MS Shell Dlg 2" font-size="10.6667" font-weight="400" font-style="normal" 
>
<rect x="3" y="4" width="1415" height="735"/>
</g>

<g fill="none" stroke="#000000" stroke-opacity="1" stroke-width="1" stroke-linecap="square" stroke-linejoin="bevel" transform="matrix(1,0,0,1,0,0)"
font-family="MS Shell Dlg 2" font-size="10.6667" font-weight="400" font-style="normal" 
>
</g>

<g fill="none" stroke="#000000" stroke-opacity="1" stroke-width="1" stroke-linecap="square" stroke-linejoin="bevel" transform="matrix(1,0,0,1,0,0)"
font-family="MS Shell Dlg 2" font-size="18.6667" font-weight="700" font-style="normal" 
>
</g>

<g fill="none" stroke="#000000" stroke-opacity="1" stroke-width="1" stroke-linecap="square" stroke-linejoin="bevel" transform="matrix(1,0,0,1,0,0)"
font-family="MS Shell Dlg 2" font-size="26.6667" font-weight="700" font-style="normal" 
>
</g>

<g fill="none" stroke="#000000" stroke-opacity="1" stroke-width="1" stroke-linecap="square" stroke-linejoin="bevel" transform="matrix(1,0,0,1,0,0)"
font-family="MS Shell Dlg 2" font-size="26.6667" font-weight="700" font-style="normal" 
>
<text fill="#000000" fill-opacity="1" stroke="none" xml:space="preserve" x="424.5" y="31" font-family="MS Shell Dlg 2" font-size="26.6667" font-weight="700" font-style="normal" 
 >Du Noüy Method Measurement - Distilled Water</text>
</g>

<g fill="none" stroke="#000000" stroke-opacity="1" stroke-width="1" stroke-linecap="square" stroke-linejoin="bevel" transform="matrix(1,0,0,1,0,0)"
font-family="MS Shell Dlg 2" font-size="26.6667" font-weight="700" font-style="normal" 
>
</g>

<g fill="none" stroke="#000000" stroke-opacity="1" stroke-width="1" stroke-linecap="square" stroke-linejoin="bevel" transform="matrix(1,0,0,1,0,0)"
font-family="MS Shell Dlg 2" font-size="18.6667" font-weight="700" font-style="normal" 
>
</g>

<g fill="none" stroke="#000000" stroke-opacity="1" stroke-width="1" stroke-linecap="square" stroke-linejoin="bevel" transform="matrix(0,-1,1,0,3,687)"
font-family="MS Shell Dlg 2" font-size="21.3333" font-weight="400" font-style="normal" 
>
</g>

<g fill="none" stroke="#000000" stroke-opacity="1" stroke-width="1" stroke-linecap="square" stroke-linejoin="bevel" transform="matrix(0,-1,1,0,3,687)"
font-family="MS Shell Dlg 2" font-size="24" font-weight="700" font-style="normal" 
>
<text fill="#000000" fill-opacity="1" stroke="none" xml:space="preserve" x="256" y="24" font-family="MS Shell Dlg 2" font-size="24" font-weight="700" font-style="normal" 
 >Force / mN</text>
</g>

<g fill="none" stroke="#000000" stroke-opacity="1" stroke-width="1" stroke-linecap="square" stroke-linejoin="bevel" transform="matrix(0,-1,1,0,3,687)"
font-family="MS Shell Dlg 2" font-size="21.3333" font-weight="400" font-style="normal" 
>
</g>

<g fill="none" stroke="#000000" stroke-opacity="1" stroke-width="1" stroke-linecap="square" stroke-linejoin="bevel" transform="matrix(1,0,0,1,0,0)"
font-family="MS Shell Dlg 2" font-size="18.6667" font-weight="700" font-style="normal" 
>
</g>

<g fill="none" stroke="#000000" stroke-opacity="1" stroke-width="1" stroke-linecap="square" stroke-linejoin="bevel" transform="matrix(1,0,0,1,0,0)"
font-family="MS Shell Dlg 2" font-size="21.3333" font-weight="400" font-style="normal" 
>
</g>

<g fill="none" stroke="#000000" stroke-opacity="1" stroke-width="1" stroke-linecap="square" stroke-linejoin="bevel" transform="matrix(1,0,0,1,34,670)"
font-family="MS Shell Dlg 2" font-size="21.3333" font-weight="400" font-style="normal" 
>
<text fill="#000000" fill-opacity="1" stroke="none" xml:space="preserve" x="0" y="15" font-family="MS Shell Dlg 2" font-size="21.3333" font-weight="400" font-style="normal" 
 >-50</text>
</g>

<g fill="none" stroke="#000000" stroke-opacity="1" stroke-width="1" stroke-linecap="square" stroke-linejoin="bevel" transform="matrix(1,0,0,1,34,670)"
font-family="MS Shell Dlg 2" font-size="21.3333" font-weight="400" font-style="normal" 
>
</g>

<g fill="none" stroke="#000000" stroke-opacity="1" stroke-width="1" stroke-linecap="square" stroke-linejoin="bevel" transform="matrix(1,0,0,1,0,0)"
font-family="MS Shell Dlg 2" font-size="21.3333" font-weight="400" font-style="normal" 
>
</g>

<g fill="none" stroke="#000000" stroke-opacity="1" stroke-width="1" stroke-linecap="square" stroke-linejoin="bevel" transform="matrix(1,0,0,1,34,595)"
font-family="MS Shell Dlg 2" font-size="21.3333" font-weight="400" font-style="normal" 
>
<text fill="#000000" fill-opacity="1" stroke="none" xml:space="preserve" x="0" y="15" font-family="MS Shell Dlg 2" font-size="21.3333" font-weight="400" font-style="normal" 
 >-40</text>
</g>

<g fill="none" stroke="#000000" stroke-opacity="1" stroke-width="1" stroke-linecap="square" stroke-linejoin="bevel" transform="matrix(1,0,0,1,34,595)"
font-family="MS Shell Dlg 2" font-size="21.3333" font-weight="400" font-style="normal" 
>
</g>

<g fill="none" stroke="#000000" stroke-opacity="1" stroke-width="1" stroke-linecap="square" stroke-linejoin="bevel" transform="matrix(1,0,0,1,0,0)"
font-family="MS Shell Dlg 2" font-size="21.3333" font-weight="400" font-style="normal" 
>
</g>

<g fill="none" stroke="#000000" stroke-opacity="1" stroke-width="1" stroke-linecap="square" stroke-linejoin="bevel" transform="matrix(1,0,0,1,34,520)"
font-family="MS Shell Dlg 2" font-size="21.3333" font-weight="400" font-style="normal" 
>
<text fill="#000000" fill-opacity="1" stroke="none" xml:space="preserve" x="0" y="15" font-family="MS Shell Dlg 2" font-size="21.3333" font-weight="400" font-style="normal" 
 >-30</text>
</g>

<g fill="none" stroke="#000000" stroke-opacity="1" stroke-width="1" stroke-linecap="square" stroke-linejoin="bevel" transform="matrix(1,0,0,1,34,520)"
font-family="MS Shell Dlg 2" font-size="21.3333" font-weight="400" font-style="normal" 
>
</g>

<g fill="none" stroke="#000000" stroke-opacity="1" stroke-width="1" stroke-linecap="square" stroke-linejoin="bevel" transform="matrix(1,0,0,1,0,0)"
font-family="MS Shell Dlg 2" font-size="21.3333" font-weight="400" font-style="normal" 
>
</g>

<g fill="none" stroke="#000000" stroke-opacity="1" stroke-width="1" stroke-linecap="square" stroke-linejoin="bevel" transform="matrix(1,0,0,1,34,445)"
font-family="MS Shell Dlg 2" font-size="21.3333" font-weight="400" font-style="normal" 
>
<text fill="#000000" fill-opacity="1" stroke="none" xml:space="preserve" x="0" y="15" font-family="MS Shell Dlg 2" font-size="21.3333" font-weight="400" font-style="normal" 
 >-20</text>
</g>

<g fill="none" stroke="#000000" stroke-opacity="1" stroke-width="1" stroke-linecap="square" stroke-linejoin="bevel" transform="matrix(1,0,0,1,34,445)"
font-family="MS Shell Dlg 2" font-size="21.3333" font-weight="400" font-style="normal" 
>
</g>

<g fill="none" stroke="#000000" stroke-opacity="1" stroke-width="1" stroke-linecap="square" stroke-linejoin="bevel" transform="matrix(1,0,0,1,0,0)"
font-family="MS Shell Dlg 2" font-size="21.3333" font-weight="400" font-style="normal" 
>
</g>

<g fill="none" stroke="#000000" stroke-opacity="1" stroke-width="1" stroke-linecap="square" stroke-linejoin="bevel" transform="matrix(1,0,0,1,34,369)"
font-family="MS Shell Dlg 2" font-size="21.3333" font-weight="400" font-style="normal" 
>
<text fill="#000000" fill-opacity="1" stroke="none" xml:space="preserve" x="0" y="15" font-family="MS Shell Dlg 2" font-size="21.3333" font-weight="400" font-style="normal" 
 >-10</text>
</g>

<g fill="none" stroke="#000000" stroke-opacity="1" stroke-width="1" stroke-linecap="square" stroke-linejoin="bevel" transform="matrix(1,0,0,1,34,369)"
font-family="MS Shell Dlg 2" font-size="21.3333" font-weight="400" font-style="normal" 
>
</g>

<g fill="none" stroke="#000000" stroke-opacity="1" stroke-width="1" stroke-linecap="square" stroke-linejoin="bevel" transform="matrix(1,0,0,1,0,0)"
font-family="MS Shell Dlg 2" font-size="21.3333" font-weight="400" font-style="normal" 
>
</g>

<g fill="none" stroke="#000000" stroke-opacity="1" stroke-width="1" stroke-linecap="square" stroke-linejoin="bevel" transform="matrix(1,0,0,1,54,294)"
font-family="MS Shell Dlg 2" font-size="21.3333" font-weight="400" font-style="normal" 
>
<text fill="#000000" fill-opacity="1" stroke="none" xml:space="preserve" x="0" y="15" font-family="MS Shell Dlg 2" font-size="21.3333" font-weight="400" font-style="normal" 
 >0</text>
</g>

<g fill="none" stroke="#000000" stroke-opacity="1" stroke-width="1" stroke-linecap="square" stroke-linejoin="bevel" transform="matrix(1,0,0,1,54,294)"
font-family="MS Shell Dlg 2" font-size="21.3333" font-weight="400" font-style="normal" 
>
</g>

<g fill="none" stroke="#000000" stroke-opacity="1" stroke-width="1" stroke-linecap="square" stroke-linejoin="bevel" transform="matrix(1,0,0,1,0,0)"
font-family="MS Shell Dlg 2" font-size="21.3333" font-weight="400" font-style="normal" 
>
</g>

<g fill="none" stroke="#000000" stroke-opacity="1" stroke-width="1" stroke-linecap="square" stroke-linejoin="bevel" transform="matrix(1,0,0,1,42,219)"
font-family="MS Shell Dlg 2" font-size="21.3333" font-weight="400" font-style="normal" 
>
<text fill="#000000" fill-opacity="1" stroke="none" xml:space="preserve" x="0" y="15" font-family="MS Shell Dlg 2" font-size="21.3333" font-weight="400" font-style="normal" 
 >10</text>
</g>

<g fill="none" stroke="#000000" stroke-opacity="1" stroke-width="1" stroke-linecap="square" stroke-linejoin="bevel" transform="matrix(1,0,0,1,42,219)"
font-family="MS Shell Dlg 2" font-size="21.3333" font-weight="400" font-style="normal" 
>
</g>

<g fill="none" stroke="#000000" stroke-opacity="1" stroke-width="1" stroke-linecap="square" stroke-linejoin="bevel" transform="matrix(1,0,0,1,0,0)"
font-family="MS Shell Dlg 2" font-size="21.3333" font-weight="400" font-style="normal" 
>
</g>

<g fill="none" stroke="#000000" stroke-opacity="1" stroke-width="1" stroke-linecap="square" stroke-linejoin="bevel" transform="matrix(1,0,0,1,42,144)"
font-family="MS Shell Dlg 2" font-size="21.3333" font-weight="400" font-style="normal" 
>
<text fill="#000000" fill-opacity="1" stroke="none" xml:space="preserve" x="0" y="15" font-family="MS Shell Dlg 2" font-size="21.3333" font-weight="400" font-style="normal" 
 >20</text>
</g>

<g fill="none" stroke="#000000" stroke-opacity="1" stroke-width="1" stroke-linecap="square" stroke-linejoin="bevel" transform="matrix(1,0,0,1,42,144)"
font-family="MS Shell Dlg 2" font-size="21.3333" font-weight="400" font-style="normal" 
>
</g>

<g fill="none" stroke="#000000" stroke-opacity="1" stroke-width="1" stroke-linecap="square" stroke-linejoin="bevel" transform="matrix(1,0,0,1,0,0)"
font-family="MS Shell Dlg 2" font-size="21.3333" font-weight="400" font-style="normal" 
>
</g>

<g fill="none" stroke="#000000" stroke-opacity="1" stroke-width="1" stroke-linecap="square" stroke-linejoin="bevel" transform="matrix(1,0,0,1,42,69)"
font-family="MS Shell Dlg 2" font-size="21.3333" font-weight="400" font-style="normal" 
>
<text fill="#000000" fill-opacity="1" stroke="none" xml:space="preserve" x="0" y="15" font-family="MS Shell Dlg 2" font-size="21.3333" font-weight="400" font-style="normal" 
 >30</text>
</g>

<g fill="none" stroke="#000000" stroke-opacity="1" stroke-width="1" stroke-linecap="square" stroke-linejoin="bevel" transform="matrix(1,0,0,1,42,69)"
font-family="MS Shell Dlg 2" font-size="21.3333" font-weight="400" font-style="normal" 
>
</g>

<g fill="none" stroke="#000000" stroke-opacity="1" stroke-width="1" stroke-linecap="square" stroke-linejoin="bevel" transform="matrix(1,0,0,1,0,0)"
font-family="MS Shell Dlg 2" font-size="21.3333" font-weight="400" font-style="normal" 
>
</g>

<g fill="none" stroke="#000000" stroke-opacity="1" stroke-width="1" stroke-linecap="square" stroke-linejoin="bevel" transform="matrix(1,0,0,1,0,0)"
font-family="MS Shell Dlg 2" font-size="21.3333" font-weight="400" font-style="normal" 
>
<polyline fill="none" vector-effect="none" points="78,664 74,664 " />
<polyline fill="none" vector-effect="none" points="78,649 74,649 " />
<polyline fill="none" vector-effect="none" points="78,634 74,634 " />
<polyline fill="none" vector-effect="none" points="78,619 74,619 " />
<polyline fill="none" vector-effect="none" points="78,589 74,589 " />
<polyline fill="none" vector-effect="none" points="78,574 74,574 " />
<polyline fill="none" vector-effect="none" points="78,559 74,559 " />
<polyline fill="none" vector-effect="none" points="78,544 74,544 " />
<polyline fill="none" vector-effect="none" points="78,514 74,514 " />
<polyline fill="none" vector-effect="none" points="78,499 74,499 " />
<polyline fill="none" vector-effect="none" points="78,484 74,484 " />
<polyline fill="none" vector-effect="none" points="78,469 74,469 " />
<polyline fill="none" vector-effect="none" points="78,438 74,438 " />
<polyline fill="none" vector-effect="none" points="78,423 74,423 " />
<polyline fill="none" vector-effect="none" points="78,408 74,408 " />
<polyline fill="none" vector-effect="none" points="78,393 74,393 " />
<polyline fill="none" vector-effect="none" points="78,363 74,363 " />
<polyline fill="none" vector-effect="none" points="78,348 74,348 " />
<polyline fill="none" vector-effect="none" points="78,333 74,333 " />
<polyline fill="none" vector-effect="none" points="78,318 74,318 " />
<polyline fill="none" vector-effect="none" points="78,288 74,288 " />
<polyline fill="none" vector-effect="none" points="78,273 74,273 " />
<polyline fill="none" vector-effect="none" points="78,258 74,258 " />
<polyline fill="none" vector-effect="none" points="78,243 74,243 " />
<polyline fill="none" vector-effect="none" points="78,213 74,213 " />
<polyline fill="none" vector-effect="none" points="78,198 74,198 " />
<polyline fill="none" vector-effect="none" points="78,183 74,183 " />
<polyline fill="none" vector-effect="none" points="78,168 74,168 " />
<polyline fill="none" vector-effect="none" points="78,138 74,138 " />
<polyline fill="none" vector-effect="none" points="78,123 74,123 " />
<polyline fill="none" vector-effect="none" points="78,108 74,108 " />
<polyline fill="none" vector-effect="none" points="78,93 74,93 " />
<polyline fill="none" vector-effect="none" points="78,63 74,63 " />
<polyline fill="none" vector-effect="none" points="78,48 74,48 " />
<polyline fill="none" vector-effect="none" points="78,679 71,679 " />
<polyline fill="none" vector-effect="none" points="78,604 71,604 " />
<polyline fill="none" vector-effect="none" points="78,529 71,529 " />
<polyline fill="none" vector-effect="none" points="78,453 71,453 " />
<polyline fill="none" vector-effect="none" points="78,378 71,378 " />
<polyline fill="none" vector-effect="none" points="78,303 71,303 " />
<polyline fill="none" vector-effect="none" points="78,228 71,228 " />
<polyline fill="none" vector-effect="none" points="78,153 71,153 " />
<polyline fill="none" vector-effect="none" points="78,78 71,78 " />
</g>

<g fill="none" stroke="#000000" stroke-opacity="1" stroke-width="1" stroke-linecap="square" stroke-linejoin="bevel" transform="matrix(1,0,0,1,0,0)"
font-family="MS Shell Dlg 2" font-size="21.3333" font-weight="400" font-style="normal" 
>
<polyline fill="none" vector-effect="none" points="78,40 78,678 " />
</g>

<g fill="none" stroke="#000000" stroke-opacity="1" stroke-width="1" stroke-linecap="square" stroke-linejoin="bevel" transform="matrix(1,0,0,1,0,0)"
font-family="MS Shell Dlg 2" font-size="21.3333" font-weight="400" font-style="normal" 
>
</g>

<g fill="none" stroke="#000000" stroke-opacity="1" stroke-width="1" stroke-linecap="square" stroke-linejoin="bevel" transform="matrix(1,0,0,1,0,0)"
font-family="MS Shell Dlg 2" font-size="18.6667" font-weight="700" font-style="normal" 
>
</g>

<g fill="none" stroke="#000000" stroke-opacity="1" stroke-width="1" stroke-linecap="square" stroke-linejoin="bevel" transform="matrix(1,0,0,1,72,680)"
font-family="MS Shell Dlg 2" font-size="21.3333" font-weight="400" font-style="normal" 
>
</g>

<g fill="none" stroke="#000000" stroke-opacity="1" stroke-width="1" stroke-linecap="square" stroke-linejoin="bevel" transform="matrix(1,0,0,1,72,680)"
font-family="MS Shell Dlg 2" font-size="24" font-weight="700" font-style="normal" 
>
<text fill="#000000" fill-opacity="1" stroke="none" xml:space="preserve" x="623" y="54" font-family="MS Shell Dlg 2" font-size="24" font-weight="700" font-style="normal" 
 >Time / s</text>
</g>

<g fill="none" stroke="#000000" stroke-opacity="1" stroke-width="1" stroke-linecap="square" stroke-linejoin="bevel" transform="matrix(1,0,0,1,72,680)"
font-family="MS Shell Dlg 2" font-size="21.3333" font-weight="400" font-style="normal" 
>
</g>

<g fill="none" stroke="#000000" stroke-opacity="1" stroke-width="1" stroke-linecap="square" stroke-linejoin="bevel" transform="matrix(1,0,0,1,0,0)"
font-family="MS Shell Dlg 2" font-size="18.6667" font-weight="700" font-style="normal" 
>
</g>

<g fill="none" stroke="#000000" stroke-opacity="1" stroke-width="1" stroke-linecap="square" stroke-linejoin="bevel" transform="matrix(1,0,0,1,0,0)"
font-family="MS Shell Dlg 2" font-size="21.3333" font-weight="400" font-style="normal" 
>
</g>

<g fill="none" stroke="#000000" stroke-opacity="1" stroke-width="1" stroke-linecap="square" stroke-linejoin="bevel" transform="matrix(1,0,0,1,72,691)"
font-family="MS Shell Dlg 2" font-size="21.3333" font-weight="400" font-style="normal" 
>
<text fill="#000000" fill-opacity="1" stroke="none" xml:space="preserve" x="0" y="15" font-family="MS Shell Dlg 2" font-size="21.3333" font-weight="400" font-style="normal" 
 >0</text>
</g>

<g fill="none" stroke="#000000" stroke-opacity="1" stroke-width="1" stroke-linecap="square" stroke-linejoin="bevel" transform="matrix(1,0,0,1,72,691)"
font-family="MS Shell Dlg 2" font-size="21.3333" font-weight="400" font-style="normal" 
>
</g>

<g fill="none" stroke="#000000" stroke-opacity="1" stroke-width="1" stroke-linecap="square" stroke-linejoin="bevel" transform="matrix(1,0,0,1,0,0)"
font-family="MS Shell Dlg 2" font-size="21.3333" font-weight="400" font-style="normal" 
>
</g>

<g fill="none" stroke="#000000" stroke-opacity="1" stroke-width="1" stroke-linecap="square" stroke-linejoin="bevel" transform="matrix(1,0,0,1,199,691)"
font-family="MS Shell Dlg 2" font-size="21.3333" font-weight="400" font-style="normal" 
>
<text fill="#000000" fill-opacity="1" stroke="none" xml:space="preserve" x="0" y="15" font-family="MS Shell Dlg 2" font-size="21.3333" font-weight="400" font-style="normal" 
 >4</text>
</g>

<g fill="none" stroke="#000000" stroke-opacity="1" stroke-width="1" stroke-linecap="square" stroke-linejoin="bevel" transform="matrix(1,0,0,1,199,691)"
font-family="MS Shell Dlg 2" font-size="21.3333" font-weight="400" font-style="normal" 
>
</g>

<g fill="none" stroke="#000000" stroke-opacity="1" stroke-width="1" stroke-linecap="square" stroke-linejoin="bevel" transform="matrix(1,0,0,1,0,0)"
font-family="MS Shell Dlg 2" font-size="21.3333" font-weight="400" font-style="normal" 
>
</g>

<g fill="none" stroke="#000000" stroke-opacity="1" stroke-width="1" stroke-linecap="square" stroke-linejoin="bevel" transform="matrix(1,0,0,1,327,691)"
font-family="MS Shell Dlg 2" font-size="21.3333" font-weight="400" font-style="normal" 
>
<text fill="#000000" fill-opacity="1" stroke="none" xml:space="preserve" x="0" y="15" font-family="MS Shell Dlg 2" font-size="21.3333" font-weight="400" font-style="normal" 
 >8</text>
</g>

<g fill="none" stroke="#000000" stroke-opacity="1" stroke-width="1" stroke-linecap="square" stroke-linejoin="bevel" transform="matrix(1,0,0,1,327,691)"
font-family="MS Shell Dlg 2" font-size="21.3333" font-weight="400" font-style="normal" 
>
</g>

<g fill="none" stroke="#000000" stroke-opacity="1" stroke-width="1" stroke-linecap="square" stroke-linejoin="bevel" transform="matrix(1,0,0,1,0,0)"
font-family="MS Shell Dlg 2" font-size="21.3333" font-weight="400" font-style="normal" 
>
</g>

<g fill="none" stroke="#000000" stroke-opacity="1" stroke-width="1" stroke-linecap="square" stroke-linejoin="bevel" transform="matrix(1,0,0,1,449,691)"
font-family="MS Shell Dlg 2" font-size="21.3333" font-weight="400" font-style="normal" 
>
<text fill="#000000" fill-opacity="1" stroke="none" xml:space="preserve" x="0" y="15" font-family="MS Shell Dlg 2" font-size="21.3333" font-weight="400" font-style="normal" 
 >12</text>
</g>

<g fill="none" stroke="#000000" stroke-opacity="1" stroke-width="1" stroke-linecap="square" stroke-linejoin="bevel" transform="matrix(1,0,0,1,449,691)"
font-family="MS Shell Dlg 2" font-size="21.3333" font-weight="400" font-style="normal" 
>
</g>

<g fill="none" stroke="#000000" stroke-opacity="1" stroke-width="1" stroke-linecap="square" stroke-linejoin="bevel" transform="matrix(1,0,0,1,0,0)"
font-family="MS Shell Dlg 2" font-size="21.3333" font-weight="400" font-style="normal" 
>
</g>

<g fill="none" stroke="#000000" stroke-opacity="1" stroke-width="1" stroke-linecap="square" stroke-linejoin="bevel" transform="matrix(1,0,0,1,576,691)"
font-family="MS Shell Dlg 2" font-size="21.3333" font-weight="400" font-style="normal" 
>
<text fill="#000000" fill-opacity="1" stroke="none" xml:space="preserve" x="0" y="15" font-family="MS Shell Dlg 2" font-size="21.3333" font-weight="400" font-style="normal" 
 >16</text>
</g>

<g fill="none" stroke="#000000" stroke-opacity="1" stroke-width="1" stroke-linecap="square" stroke-linejoin="bevel" transform="matrix(1,0,0,1,576,691)"
font-family="MS Shell Dlg 2" font-size="21.3333" font-weight="400" font-style="normal" 
>
</g>

<g fill="none" stroke="#000000" stroke-opacity="1" stroke-width="1" stroke-linecap="square" stroke-linejoin="bevel" transform="matrix(1,0,0,1,0,0)"
font-family="MS Shell Dlg 2" font-size="21.3333" font-weight="400" font-style="normal" 
>
</g>

<g fill="none" stroke="#000000" stroke-opacity="1" stroke-width="1" stroke-linecap="square" stroke-linejoin="bevel" transform="matrix(1,0,0,1,703,691)"
font-family="MS Shell Dlg 2" font-size="21.3333" font-weight="400" font-style="normal" 
>
<text fill="#000000" fill-opacity="1" stroke="none" xml:space="preserve" x="0" y="15" font-family="MS Shell Dlg 2" font-size="21.3333" font-weight="400" font-style="normal" 
 >20</text>
</g>

<g fill="none" stroke="#000000" stroke-opacity="1" stroke-width="1" stroke-linecap="square" stroke-linejoin="bevel" transform="matrix(1,0,0,1,703,691)"
font-family="MS Shell Dlg 2" font-size="21.3333" font-weight="400" font-style="normal" 
>
</g>

<g fill="none" stroke="#000000" stroke-opacity="1" stroke-width="1" stroke-linecap="square" stroke-linejoin="bevel" transform="matrix(1,0,0,1,0,0)"
font-family="MS Shell Dlg 2" font-size="21.3333" font-weight="400" font-style="normal" 
>
</g>

<g fill="none" stroke="#000000" stroke-opacity="1" stroke-width="1" stroke-linecap="square" stroke-linejoin="bevel" transform="matrix(1,0,0,1,830,691)"
font-family="MS Shell Dlg 2" font-size="21.3333" font-weight="400" font-style="normal" 
>
<text fill="#000000" fill-opacity="1" stroke="none" xml:space="preserve" x="0" y="15" font-family="MS Shell Dlg 2" font-size="21.3333" font-weight="400" font-style="normal" 
 >24</text>
</g>

<g fill="none" stroke="#000000" stroke-opacity="1" stroke-width="1" stroke-linecap="square" stroke-linejoin="bevel" transform="matrix(1,0,0,1,830,691)"
font-family="MS Shell Dlg 2" font-size="21.3333" font-weight="400" font-style="normal" 
>
</g>

<g fill="none" stroke="#000000" stroke-opacity="1" stroke-width="1" stroke-linecap="square" stroke-linejoin="bevel" transform="matrix(1,0,0,1,0,0)"
font-family="MS Shell Dlg 2" font-size="21.3333" font-weight="400" font-style="normal" 
>
</g>

<g fill="none" stroke="#000000" stroke-opacity="1" stroke-width="1" stroke-linecap="square" stroke-linejoin="bevel" transform="matrix(1,0,0,1,958,691)"
font-family="MS Shell Dlg 2" font-size="21.3333" font-weight="400" font-style="normal" 
>
<text fill="#000000" fill-opacity="1" stroke="none" xml:space="preserve" x="0" y="15" font-family="MS Shell Dlg 2" font-size="21.3333" font-weight="400" font-style="normal" 
 >28</text>
</g>

<g fill="none" stroke="#000000" stroke-opacity="1" stroke-width="1" stroke-linecap="square" stroke-linejoin="bevel" transform="matrix(1,0,0,1,958,691)"
font-family="MS Shell Dlg 2" font-size="21.3333" font-weight="400" font-style="normal" 
>
</g>

<g fill="none" stroke="#000000" stroke-opacity="1" stroke-width="1" stroke-linecap="square" stroke-linejoin="bevel" transform="matrix(1,0,0,1,0,0)"
font-family="MS Shell Dlg 2" font-size="21.3333" font-weight="400" font-style="normal" 
>
</g>

<g fill="none" stroke="#000000" stroke-opacity="1" stroke-width="1" stroke-linecap="square" stroke-linejoin="bevel" transform="matrix(1,0,0,1,1085,691)"
font-family="MS Shell Dlg 2" font-size="21.3333" font-weight="400" font-style="normal" 
>
<text fill="#000000" fill-opacity="1" stroke="none" xml:space="preserve" x="0" y="15" font-family="MS Shell Dlg 2" font-size="21.3333" font-weight="400" font-style="normal" 
 >32</text>
</g>

<g fill="none" stroke="#000000" stroke-opacity="1" stroke-width="1" stroke-linecap="square" stroke-linejoin="bevel" transform="matrix(1,0,0,1,1085,691)"
font-family="MS Shell Dlg 2" font-size="21.3333" font-weight="400" font-style="normal" 
>
</g>

<g fill="none" stroke="#000000" stroke-opacity="1" stroke-width="1" stroke-linecap="square" stroke-linejoin="bevel" transform="matrix(1,0,0,1,0,0)"
font-family="MS Shell Dlg 2" font-size="21.3333" font-weight="400" font-style="normal" 
>
</g>

<g fill="none" stroke="#000000" stroke-opacity="1" stroke-width="1" stroke-linecap="square" stroke-linejoin="bevel" transform="matrix(1,0,0,1,1213,691)"
font-family="MS Shell Dlg 2" font-size="21.3333" font-weight="400" font-style="normal" 
>
<text fill="#000000" fill-opacity="1" stroke="none" xml:space="preserve" x="0" y="15" font-family="MS Shell Dlg 2" font-size="21.3333" font-weight="400" font-style="normal" 
 >36</text>
</g>

<g fill="none" stroke="#000000" stroke-opacity="1" stroke-width="1" stroke-linecap="square" stroke-linejoin="bevel" transform="matrix(1,0,0,1,1213,691)"
font-family="MS Shell Dlg 2" font-size="21.3333" font-weight="400" font-style="normal" 
>
</g>

<g fill="none" stroke="#000000" stroke-opacity="1" stroke-width="1" stroke-linecap="square" stroke-linejoin="bevel" transform="matrix(1,0,0,1,0,0)"
font-family="MS Shell Dlg 2" font-size="21.3333" font-weight="400" font-style="normal" 
>
</g>

<g fill="none" stroke="#000000" stroke-opacity="1" stroke-width="1" stroke-linecap="square" stroke-linejoin="bevel" transform="matrix(1,0,0,1,1340,691)"
font-family="MS Shell Dlg 2" font-size="21.3333" font-weight="400" font-style="normal" 
>
<text fill="#000000" fill-opacity="1" stroke="none" xml:space="preserve" x="0" y="15" font-family="MS Shell Dlg 2" font-size="21.3333" font-weight="400" font-style="normal" 
 >40</text>
</g>

<g fill="none" stroke="#000000" stroke-opacity="1" stroke-width="1" stroke-linecap="square" stroke-linejoin="bevel" transform="matrix(1,0,0,1,1340,691)"
font-family="MS Shell Dlg 2" font-size="21.3333" font-weight="400" font-style="normal" 
>
</g>

<g fill="none" stroke="#000000" stroke-opacity="1" stroke-width="1" stroke-linecap="square" stroke-linejoin="bevel" transform="matrix(1,0,0,1,0,0)"
font-family="MS Shell Dlg 2" font-size="21.3333" font-weight="400" font-style="normal" 
>
</g>

<g fill="none" stroke="#000000" stroke-opacity="1" stroke-width="1" stroke-linecap="square" stroke-linejoin="bevel" transform="matrix(1,0,0,1,0,0)"
font-family="MS Shell Dlg 2" font-size="21.3333" font-weight="400" font-style="normal" 
>
<polyline fill="none" vector-effect="none" points="111,680 111,684 " />
<polyline fill="none" vector-effect="none" points="175,680 175,684 " />
<polyline fill="none" vector-effect="none" points="238,680 238,684 " />
<polyline fill="none" vector-effect="none" points="302,680 302,684 " />
<polyline fill="none" vector-effect="none" points="366,680 366,684 " />
<polyline fill="none" vector-effect="none" points="429,680 429,684 " />
<polyline fill="none" vector-effect="none" points="493,680 493,684 " />
<polyline fill="none" vector-effect="none" points="557,680 557,684 " />
<polyline fill="none" vector-effect="none" points="621,680 621,684 " />
<polyline fill="none" vector-effect="none" points="684,680 684,684 " />
<polyline fill="none" vector-effect="none" points="748,680 748,684 " />
<polyline fill="none" vector-effect="none" points="812,680 812,684 " />
<polyline fill="none" vector-effect="none" points="875,680 875,684 " />
<polyline fill="none" vector-effect="none" points="939,680 939,684 " />
<polyline fill="none" vector-effect="none" points="1003,680 1003,684 " />
<polyline fill="none" vector-effect="none" points="1067,680 1067,684 " />
<polyline fill="none" vector-effect="none" points="1130,680 1130,684 " />
<polyline fill="none" vector-effect="none" points="1194,680 1194,684 " />
<polyline fill="none" vector-effect="none" points="1258,680 1258,684 " />
<polyline fill="none" vector-effect="none" points="1321,680 1321,684 " />
<polyline fill="none" vector-effect="none" points="1385,680 1385,684 " />
<polyline fill="none" vector-effect="none" points="143,680 143,684 " />
<polyline fill="none" vector-effect="none" points="270,680 270,684 " />
<polyline fill="none" vector-effect="none" points="398,680 398,684 " />
<polyline fill="none" vector-effect="none" points="525,680 525,684 " />
<polyline fill="none" vector-effect="none" points="652,680 652,684 " />
<polyline fill="none" vector-effect="none" points="780,680 780,684 " />
<polyline fill="none" vector-effect="none" points="907,680 907,684 " />
<polyline fill="none" vector-effect="none" points="1035,680 1035,684 " />
<polyline fill="none" vector-effect="none" points="1162,680 1162,684 " />
<polyline fill="none" vector-effect="none" points="1290,680 1290,684 " />
<polyline fill="none" vector-effect="none" points="1417,680 1417,684 " />
<polyline fill="none" vector-effect="none" points="79,680 79,687 " />
<polyline fill="none" vector-effect="none" points="206,680 206,687 " />
<polyline fill="none" vector-effect="none" points="334,680 334,687 " />
<polyline fill="none" vector-effect="none" points="461,680 461,687 " />
<polyline fill="none" vector-effect="none" points="589,680 589,687 " />
<polyline fill="none" vector-effect="none" points="716,680 716,687 " />
<polyline fill="none" vector-effect="none" points="844,680 844,687 " />
<polyline fill="none" vector-effect="none" points="971,680 971,687 " />
<polyline fill="none" vector-effect="none" points="1098,680 1098,687 " />
<polyline fill="none" vector-effect="none" points="1226,680 1226,687 " />
<polyline fill="none" vector-effect="none" points="1353,680 1353,687 " />
</g>

<g fill="none" stroke="#000000" stroke-opacity="1" stroke-width="1" stroke-linecap="square" stroke-linejoin="bevel" transform="matrix(1,0,0,1,0,0)"
font-family="MS Shell Dlg 2" font-size="21.3333" font-weight="400" font-style="normal" 
>
<polyline fill="none" vector-effect="none" points="79,680 1416,680 " />
</g>

<g fill="none" stroke="#000000" stroke-opacity="1" stroke-width="1" stroke-linecap="square" stroke-linejoin="bevel" transform="matrix(1,0,0,1,0,0)"
font-family="MS Shell Dlg 2" font-size="21.3333" font-weight="400" font-style="normal" 
>
</g>

<g fill="none" stroke="#000000" stroke-opacity="1" stroke-width="1" stroke-linecap="square" stroke-linejoin="bevel" transform="matrix(1,0,0,1,0,0)"
font-family="MS Shell Dlg 2" font-size="18.6667" font-weight="700" font-style="normal" 
>
</g>

<g fill="#ffffff" fill-opacity="1" stroke="none" transform="matrix(1,0,0,1,0,0)"
font-family="MS Shell Dlg 2" font-size="18.6667" font-weight="700" font-style="normal" 
>
<rect x="79" y="40" width="1338" height="639"/>
</g>

<g fill="none" stroke="#000000" stroke-opacity="1" stroke-width="1" stroke-linecap="square" stroke-linejoin="bevel" transform="matrix(1,0,0,1,0,0)"
font-family="MS Shell Dlg 2" font-size="18.6667" font-weight="700" font-style="normal" 
>
</g>

<g fill="none" stroke="#a0a0a4" stroke-opacity="1" stroke-dasharray="1,2" stroke-dashoffset="0" stroke-width="1" stroke-linecap="square" stroke-linejoin="bevel" transform="matrix(1,0,0,1,0,0)"
font-family="MS Shell Dlg 2" font-size="18.6667" font-weight="700" font-style="normal" 
>
<polyline fill="none" vector-effect="none" points="79,664 1417,664 " />
<polyline fill="none" vector-effect="none" points="79,649 1417,649 " />
<polyline fill="none" vector-effect="none" points="79,634 1417,634 " />
<polyline fill="none" vector-effect="none" points="79,619 1417,619 " />
<polyline fill="none" vector-effect="none" points="79,589 1417,589 " />
<polyline fill="none" vector-effect="none" points="79,574 1417,574 " />
<polyline fill="none" vector-effect="none" points="79,559 1417,559 " />
<polyline fill="none" vector-effect="none" points="79,544 1417,544 " />
<polyline fill="none" vector-effect="none" points="79,514 1417,514 " />
<polyline fill="none" vector-effect="none" points="79,499 1417,499 " />
<polyline fill="none" vector-effect="none" points="79,484 1417,484 " />
<polyline fill="none" vector-effect="none" points="79,469 1417,469 " />
<polyline fill="none" vector-effect="none" points="79,438 1417,438 " />
<polyline fill="none" vector-effect="none" points="79,423 1417,423 " />
<polyline fill="none" vector-effect="none" points="79,408 1417,408 " />
<polyline fill="none" vector-effect="none" points="79,393 1417,393 " />
<polyline fill="none" vector-effect="none" points="79,363 1417,363 " />
<polyline fill="none" vector-effect="none" points="79,348 1417,348 " />
<polyline fill="none" vector-effect="none" points="79,333 1417,333 " />
<polyline fill="none" vector-effect="none" points="79,318 1417,318 " />
<polyline fill="none" vector-effect="none" points="79,288 1417,288 " />
<polyline fill="none" vector-effect="none" points="79,273 1417,273 " />
<polyline fill="none" vector-effect="none" points="79,258 1417,258 " />
<polyline fill="none" vector-effect="none" points="79,243 1417,243 " />
<polyline fill="none" vector-effect="none" points="79,213 1417,213 " />
<polyline fill="none" vector-effect="none" points="79,198 1417,198 " />
<polyline fill="none" vector-effect="none" points="79,183 1417,183 " />
<polyline fill="none" vector-effect="none" points="79,168 1417,168 " />
<polyline fill="none" vector-effect="none" points="79,138 1417,138 " />
<polyline fill="none" vector-effect="none" points="79,123 1417,123 " />
<polyline fill="none" vector-effect="none" points="79,108 1417,108 " />
<polyline fill="none" vector-effect="none" points="79,93 1417,93 " />
<polyline fill="none" vector-effect="none" points="79,63 1417,63 " />
</g>

<g fill="none" stroke="#0000ff" stroke-opacity="1" stroke-width="1" stroke-linecap="square" stroke-linejoin="bevel" transform="matrix(1,0,0,1,0,0)"
font-family="MS Shell Dlg 2" font-size="18.6667" font-weight="700" font-style="normal" 
>
<polyline fill="none" vector-effect="none" points="79,604 1417,604 " />
<polyline fill="none" vector-effect="none" points="79,529 1417,529 " />
<polyline fill="none" vector-effect="none" points="79,453 1417,453 " />
<polyline fill="none" vector-effect="none" points="79,378 1417,378 " />
<polyline fill="none" vector-effect="none" points="79,303 1417,303 " />
<polyline fill="none" vector-effect="none" points="79,228 1417,228 " />
<polyline fill="none" vector-effect="none" points="79,153 1417,153 " />
<polyline fill="none" vector-effect="none" points="79,78 1417,78 " />
</g>

<g fill="none" stroke="#000000" stroke-opacity="1" stroke-width="1" stroke-linecap="square" stroke-linejoin="bevel" transform="matrix(1,0,0,1,0,0)"
font-family="MS Shell Dlg 2" font-size="18.6667" font-weight="700" font-style="normal" 
>
</g>

<g fill="none" stroke="#000000" stroke-opacity="1" stroke-width="1" stroke-linecap="square" stroke-linejoin="bevel" transform="matrix(1,0,0,1,0,0)"
font-family="MS Shell Dlg 2" font-size="18.6667" font-weight="700" font-style="normal" 
>
</g>

<g fill="none" stroke="#000000" stroke-opacity="1" stroke-width="1" stroke-linecap="butt" stroke-linejoin="bevel" transform="matrix(1,0,0,1,0,0)"
font-family="MS Shell Dlg 2" font-size="18.6667" font-weight="700" font-style="normal" 
>
<polyline fill="none" vector-effect="non-scaling-stroke" points="79,303 82,304 85,304 89,303 92,302 95,302 98,302 101,303 104,304 108,304 111,304 114,303 117,302 120,302 124,302 127,303 130,304 133,304 136,303 140,302 143,302 146,302 149,303 152,304 155,304 159,304 162,304 165,303 168,302 171,303 175,303 178,304 181,304 184,304 187,303 191,302 194,302 197,303 200,304 203,304 206,304 210,304 213,303 216,302 219,302 222,303 226,304 229,304 232,304 235,302 238,287 241,271 245,256 248,239 251,233 254,227 257,216 261,211 264,220 267,227 270,234 273,238 277,240 280,241 283,252 286,268 289,286 292,289 296,292 299,286 302,285 305,288 308,291 312,307 315,307 318,307 321,315 324,323 327,327 331,332 334,325 337,332 340,326 343,324 347,332 350,333 353,330 356,331 359,333 363,333 366,337 369,338 372,355 375,370 378,377 382,386 385,388 388,386 391,383 394,377 398,378 401,382 404,384 407,388 410,389 414,391 417,392 420,399 423,404 426,403 429,407 433,409 436,408 439,401 442,399 445,393 449,394 452,400 455,398 458,404 461,399 464,403 468,408 471,398 474,406 477,401 480,401 484,420 487,415 490,424 493,425 496,419 500,419 503,422 506,418 509,421 512,423 515,420 519,425 522,427 525,419 528,436 531,442 535,457 538,472 541,468 544,477 547,487 550,489 554,504 557,504 560,499 563,511 566,518 570,524 573,537 576,557 579,573 582,585 586,588 589,593 592,600 595,598 598,594 601,597 605,600 608,603 611,607 614,607 617,608 621,612 624,614 627,624 630,626 633,628 637,631 640,632 643,632 646,633 649,633 652,631 656,632 659,632 662,631 665,632 668,633 672,633 675,634 678,634 681,635 684,616 687,532 691,439 694,416 697,416 700,419 703,419 707,421 710,423 713,425 716,425 719,426 723,427 726,427 729,427 732,427 735,426 738,425 742,424 745,422 748,421 751,422 754,421 758,421 761,421 764,422 767,422 770,422 773,422 777,423 780,424 783,424 786,424 789,424 793,424 796,423 799,424 802,424 805,423 809,423 812,423 815,422 818,420 821,422 824,422 828,421 831,423 834,423 837,422 840,423 844,424 847,422 850,423 853,426 856,424 860,425 863,434 866,431 869,432 872,435 875,422 879,411 882,411 885,405 888,388 891,379 895,364 898,352 901,348 904,336 907,324 910,327 914,321 917,319 920,310 923,295 926,282 930,260 933,246 936,240 939,234 942,230 946,237 949,238 952,230 955,236 958,235 961,229 965,225 968,215 971,208 974,198 977,188 981,186 984,185 987,181 990,179 993,177 996,177 1000,175 1003,176 1006,176 1009,175 1012,175 1016,162 1019,158 1022,156 1025,153 1028,151 1032,151 1035,150 1038,149 1041,148 1044,144 1047,141 1051,141 1054,139 1057,139 1060,141 1063,131 1067,123 1070,118 1073,115 1076,114 1079,112 1083,112 1086,109 1089,109 1092,108 1095,106 1098,107 1102,108 1105,107 1108,109 1111,103 1114,95 1118,86 1121,82 1124,83 1127,82 1130,82 1133,84 1137,84 1140,86 1143,87 1146,86 1149,88 1153,90 1156,89 1159,92 1162,92 1165,91 1169,92 1172,94 1175,96 1178,98 1181,100 1184,102 1188,103 1191,104 1194,104 1197,105 1200,104 1204,103 1207,104 1210,104 1213,104 1216,105 1219,105 1223,104 1226,104 1229,104 1232,105 1235,105 1239,105 1242,105 1245,104 1248,104 1251,104 1255,105 1258,106 1261,106 1264,105 1267,105 1270,105 1274,105 1277,106 1280,107 1283,107 1286,142 1290,259 1293,299 1296,301 1299,302 1302,304 1306,305 1309,303 1312,302 1315,301 1318,301 1321,301 1325,303 1328,305 1331,304 1334,303 1337,301 1341,301 1344,301 1347,302 1350,304 1353,305 1356,304 1360,302 1363,301 1366,301 1369,301 1372,303 1376,304 1379,305 1382,304 " />
</g>

<g fill="none" stroke="#000000" stroke-opacity="1" stroke-width="1" stroke-linecap="square" stroke-linejoin="bevel" transform="matrix(1,0,0,1,0,0)"
font-family="MS Shell Dlg 2" font-size="18.6667" font-weight="700" font-style="normal" 
>
</g>

<g fill="none" stroke="#000000" stroke-opacity="1" stroke-width="1" stroke-linecap="square" stroke-linejoin="bevel" transform="matrix(1,0,0,1,0,0)"
font-family="MS Shell Dlg 2" font-size="18.6667" font-weight="700" font-style="normal" 
>
</g>

<g fill="none" stroke="#000000" stroke-opacity="1" stroke-width="1" stroke-linecap="square" stroke-linejoin="bevel" transform="matrix(1,0,0,1,0,0)"
font-family="MS Shell Dlg 2" font-size="18.6667" font-weight="700" font-style="normal" 
>
</g>

<g fill="none" stroke="#ff0000" stroke-opacity="1" stroke-width="1" stroke-linecap="butt" stroke-linejoin="bevel" transform="matrix(1,0,0,1,0,0)"
font-family="MS Shell Dlg 2" font-size="18.6667" font-weight="700" font-style="normal" 
>
<polyline fill="none" vector-effect="non-scaling-stroke" points="79,303 82,303 85,303 89,303 92,303 95,303 98,303 101,303 104,303 108,303 111,303 114,303 117,303 120,303 124,303 127,303 130,303 133,303 136,303 140,303 143,303 146,303 149,303 152,303 155,303 159,303 162,303 165,303 168,303 171,303 175,303 178,303 181,303 184,303 187,303 191,303 194,303 197,303 200,303 203,303 206,303 210,303 213,303 216,303 219,303 222,303 226,303 229,303 232,303 235,303 238,302 241,299 245,294 248,289 251,283 254,278 257,271 261,265 264,261 267,257 270,255 273,253 277,252 280,251 283,251 286,253 289,256 292,259 296,263 299,265 302,267 305,269 308,271 312,275 315,278 318,281 321,284 324,288 327,292 331,296 334,299 337,302 340,305 343,307 347,309 350,312 353,314 356,315 359,317 363,319 366,320 369,322 372,326 375,330 378,335 382,340 385,345 388,349 391,352 394,355 398,357 401,360 404,362 407,365 410,367 414,369 417,372 420,374 423,377 426,380 429,383 433,385 436,388 439,389 442,390 445,390 449,390 452,391 455,392 458,393 461,394 464,395 468,396 471,396 474,397 477,398 480,398 484,400 487,402 490,404 493,406 496,407 500,408 503,410 506,411 509,412 512,413 515,414 519,415 522,416 525,416 528,418 531,421 535,424 538,429 541,433 544,437 547,442 550,447 554,453 557,458 560,462 563,467 566,472 570,477 573,483 576,491 579,499 582,508 586,516 589,523 592,531 595,538 598,543 601,549 605,554 608,559 611,564 614,568 617,572 621,576 624,580 627,584 630,588 633,592 637,596 640,600 643,603 646,606 649,609 652,611 656,613 659,615 662,617 665,618 668,620 672,621 675,622 678,624 681,625 684,624 687,615 691,597 694,579 697,563 700,548 703,535 707,524 710,514 713,505 716,497 719,490 723,484 726,478 729,473 732,468 735,464 738,460 742,456 745,453 748,450 751,447 754,444 758,442 761,440 764,438 767,437 770,435 773,434 777,433 780,432 783,431 786,430 789,430 793,429 796,429 799,428 802,428 805,427 809,427 812,426 815,426 818,425 821,425 824,425 828,424 831,424 834,424 837,424 840,424 844,424 847,424 850,424 853,424 856,424 860,424 863,425 866,426 869,426 872,427 875,427 879,425 882,424 885,422 888,419 891,415 895,409 898,404 901,398 904,392 907,385 910,379 914,374 917,368 920,362 923,356 926,348 930,339 933,330 936,321 939,312 942,304 946,297 949,291 952,285 955,280 958,276 961,271 965,267 968,261 971,256 974,250 977,244 981,238 984,233 987,228 990,223 993,218 996,214 1000,210 1003,207 1006,204 1009,201 1012,198 1016,195 1019,191 1022,187 1025,184 1028,181 1032,178 1035,175 1038,172 1041,170 1044,167 1047,165 1051,162 1054,160 1057,158 1060,156 1063,154 1067,151 1070,147 1073,144 1076,141 1079,138 1083,136 1086,133 1089,130 1092,128 1095,126 1098,124 1102,123 1105,121 1108,120 1111,118 1114,116 1118,113 1121,110 1124,107 1127,105 1130,102 1133,100 1137,99 1140,98 1143,96 1146,95 1149,95 1153,94 1156,94 1159,94 1162,93 1165,93 1169,93 1172,93 1175,93 1178,94 1181,94 1184,95 1188,96 1191,97 1194,97 1197,98 1200,99 1204,99 1207,100 1210,100 1213,101 1216,101 1219,101 1223,102 1226,102 1229,102 1232,102 1235,103 1239,103 1242,103 1245,103 1248,103 1251,103 1255,104 1258,104 1261,104 1264,104 1267,104 1270,104 1274,104 1277,105 1280,105 1283,105 1286,109 1290,124 1293,141 1296,157 1299,172 1302,185 1306,197 1309,208 1312,217 1315,225 1318,233 1321,240 1325,246 1328,252 1331,257 1334,262 1337,266 1341,269 1344,272 1347,275 1350,278 1353,281 1356,283 1360,285 1363,287 1366,288 1369,289 1372,291 1376,292 1379,293 1382,294 " />
</g>

<g fill="none" stroke="#000000" stroke-opacity="1" stroke-width="1" stroke-linecap="square" stroke-linejoin="bevel" transform="matrix(1,0,0,1,0,0)"
font-family="MS Shell Dlg 2" font-size="18.6667" font-weight="700" font-style="normal" 
>
</g>

<g fill="none" stroke="#000000" stroke-opacity="1" stroke-width="1" stroke-linecap="square" stroke-linejoin="bevel" transform="matrix(1,0,0,1,0,0)"
font-family="MS Shell Dlg 2" font-size="18.6667" font-weight="700" font-style="normal" 
>
</g>

<g fill="none" stroke="#000000" stroke-opacity="1" stroke-width="1" stroke-linecap="square" stroke-linejoin="bevel" transform="matrix(1,0,0,1,0,0)"
font-family="MS Shell Dlg 2" font-size="18.6667" font-weight="700" font-style="normal" 
>
</g>

<g fill="#ffffff" fill-opacity="1" stroke="none" transform="matrix(1,0,0,1,0,0)"
font-family="MS Shell Dlg 2" font-size="18.6667" font-weight="700" font-style="normal" 
>
<rect x="88" y="49" width="115" height="61"/>
</g>

<g fill="none" stroke="#000000" stroke-opacity="1" stroke-width="1" stroke-linecap="square" stroke-linejoin="miter" stroke-miterlimit="2" transform="matrix(1,0,0,1,0,0)"
font-family="MS Shell Dlg 2" font-size="18.6667" font-weight="700" font-style="normal" 
>
<rect x="88" y="49" width="115" height="61"/>
</g>

<g fill="none" stroke="#000000" stroke-opacity="1" stroke-width="1" stroke-linecap="square" stroke-linejoin="bevel" transform="matrix(1,0,0,1,0,0)"
font-family="MS Shell Dlg 2" font-size="18.6667" font-weight="700" font-style="normal" 
>
</g>

<g fill="none" stroke="#000000" stroke-opacity="1" stroke-width="1" stroke-linecap="butt" stroke-linejoin="bevel" transform="matrix(1,0,0,1,0,0)"
font-family="MS Shell Dlg 2" font-size="18.6667" font-weight="700" font-style="normal" 
>
<polyline fill="none" vector-effect="none" points="96,66 112,66 " />
</g>

<g fill="none" stroke="#000000" stroke-opacity="1" stroke-width="1" stroke-linecap="square" stroke-linejoin="bevel" transform="matrix(1,0,0,1,0,0)"
font-family="MS Shell Dlg 2" font-size="18.6667" font-weight="700" font-style="normal" 
>
</g>

<g fill="none" stroke="#ff0000" stroke-opacity="1" stroke-width="1" stroke-linecap="butt" stroke-linejoin="bevel" transform="matrix(1,0,0,1,0,0)"
font-family="MS Shell Dlg 2" font-size="18.6667" font-weight="700" font-style="normal" 
>
<polyline fill="none" vector-effect="none" points="96,92 112,92 " />
</g>

<g fill="none" stroke="#000000" stroke-opacity="1" stroke-width="1" stroke-linecap="square" stroke-linejoin="bevel" transform="matrix(1,0,0,1,0,0)"
font-family="MS Shell Dlg 2" font-size="18.6667" font-weight="700" font-style="normal" 
>
</g>

<g fill="none" stroke="#000000" stroke-opacity="1" stroke-width="1" stroke-linecap="square" stroke-linejoin="bevel" transform="matrix(1,0,0,1,0,0)"
font-family="MS Shell Dlg 2" font-size="21.3333" font-weight="400" font-style="normal" 
>
<text fill="#000000" fill-opacity="1" stroke="none" xml:space="preserve" x="121" y="74.5" font-family="MS Shell Dlg 2" font-size="21.3333" font-weight="400" font-style="normal" 
 >Raw</text>
</g>

<g fill="none" stroke="#000000" stroke-opacity="1" stroke-width="1" stroke-linecap="square" stroke-linejoin="bevel" transform="matrix(1,0,0,1,0,0)"
font-family="MS Shell Dlg 2" font-size="18.6667" font-weight="700" font-style="normal" 
>
</g>

<g fill="none" stroke="#000000" stroke-opacity="1" stroke-width="1" stroke-linecap="square" stroke-linejoin="bevel" transform="matrix(1,0,0,1,0,0)"
font-family="MS Shell Dlg 2" font-size="21.3333" font-weight="400" font-style="normal" 
>
<text fill="#000000" fill-opacity="1" stroke="none" xml:space="preserve" x="122.5" y="101" font-family="MS Shell Dlg 2" font-size="21.3333" font-weight="400" font-style="normal" 
 >Filtered</text>
</g>

<g fill="none" stroke="#000000" stroke-opacity="1" stroke-width="1" stroke-linecap="square" stroke-linejoin="bevel" transform="matrix(1,0,0,1,0,0)"
font-family="MS Shell Dlg 2" font-size="18.6667" font-weight="700" font-style="normal" 
>
</g>

<g fill="none" stroke="#000000" stroke-opacity="1" stroke-width="1" stroke-linecap="square" stroke-linejoin="bevel" transform="matrix(1,0,0,1,0,0)"
font-family="MS Shell Dlg 2" font-size="18.6667" font-weight="700" font-style="normal" 
>
</g>

<g fill="none" stroke="#000000" stroke-opacity="1" stroke-width="1" stroke-linecap="round" stroke-linejoin="round" transform="matrix(1,0,0,1,0,0)"
font-family="MS Shell Dlg 2" font-size="18.6667" font-weight="700" font-style="normal" 
>
</g>

<g fill="none" stroke="#000000" stroke-opacity="1" stroke-width="1" stroke-linecap="square" stroke-linejoin="bevel" transform="matrix(1,0,0,1,0,0)"
font-family="MS Shell Dlg 2" font-size="18.6667" font-weight="700" font-style="normal" 
>
</g>

<g fill="none" stroke="#000000" stroke-opacity="1" stroke-width="1" stroke-linecap="square" stroke-linejoin="bevel" transform="matrix(1,0,0,1,0,0)"
font-family="MS Shell Dlg 2" font-size="10.6667" font-weight="400" font-style="normal" 
>
</g>
</g>
</svg>
