<?xml version="1.0" encoding="UTF-8" standalone="no"?>
<svg width="376.767mm" height="196.85mm"
 viewBox="0 0 1424 744"
 xmlns="http://www.w3.org/2000/svg" xmlns:xlink="http://www.w3.org/1999/xlink"  version="1.2" baseProfile="tiny">
<title>Grafik2</title>
<desc>Generated with Qt</desc>
<defs>
<mask id="patternmask12" x="0" y="0" width="8" height="8" stroke="none" fill="#ffffff" patternUnits="userSpaceOnUse" >
<rect x="7" y="0" width="1" height="1" />
<rect x="6" y="1" width="1" height="1" />
<rect x="5" y="2" width="1" height="1" />
<rect x="4" y="3" width="1" height="1" />
<rect x="3" y="4" width="1" height="1" />
<rect x="2" y="5" width="1" height="1" />
<rect x="1" y="6" width="1" height="1" />
<rect x="0" y="7" width="1" height="1" />
</mask>

<pattern id="fillpattern12_ff0000" x="0" y="0" width="8" height="8" patternUnits="userSpaceOnUse" >
<rect x="0" y="0" width="8" height="8" stroke="none" fill="#ff0000" mask="url(#patternmask12);" />
</pattern>

</defs>
<g fill="none" stroke="black" stroke-width="1" fill-rule="evenodd" stroke-linecap="square" stroke-linejoin="bevel" >

<g fill="#ffffff" fill-opacity="1" stroke="none" transform="matrix(1,0,0,1,0,0)"
font-family="MS Shell Dlg 2" font-size="10.6667" font-weight="400" font-style="normal" 
>
<rect x="0" y="0" width="1424" height="744"/>
</g>

<g fill="none" stroke="#000000" stroke-opacity="1" stroke-width="1" stroke-linecap="square" stroke-linejoin="bevel" transform="matrix(1,0,0,1,0,0)"
font-family="MS Shell Dlg 2" font-size="10.6667" font-weight="400" font-style="normal" 
>
</g>

<g fill="#ffffff" fill-opacity="1" stroke="none" transform="matrix(1,0,0,1,0,0)"
font-family="MS Shell Dlg 2" font-size="10.6667" font-weight="400" font-style="normal" 
>
<rect x="3" y="5" width="1414" height="734"/>
</g>

<g fill="none" stroke="#000000" stroke-opacity="1" stroke-width="1" stroke-linecap="square" stroke-linejoin="bevel" transform="matrix(1,0,0,1,0,0)"
font-family="MS Shell Dlg 2" font-size="10.6667" font-weight="400" font-style="normal" 
>
</g>

<g fill="none" stroke="#000000" stroke-opacity="1" stroke-width="1" stroke-linecap="square" stroke-linejoin="bevel" transform="matrix(1,0,0,1,0,0)"
font-family="MS Shell Dlg 2" font-size="18.6667" font-weight="700" font-style="normal" 
>
</g>

<g fill="none" stroke="#000000" stroke-opacity="1" stroke-width="1" stroke-linecap="square" stroke-linejoin="bevel" transform="matrix(1,0,0,1,0,0)"
font-family="MS Shell Dlg 2" font-size="26.6667" font-weight="700" font-style="normal" 
>
</g>

<g fill="none" stroke="#000000" stroke-opacity="1" stroke-width="1" stroke-linecap="square" stroke-linejoin="bevel" transform="matrix(1,0,0,1,0,0)"
font-family="MS Shell Dlg 2" font-size="26.6667" font-weight="700" font-style="normal" 
>
<text fill="#000000" fill-opacity="1" stroke="none" xml:space="preserve" x="554.5" y="32" font-family="MS Shell Dlg 2" font-size="26.6667" font-weight="700" font-style="normal" 
 >Histogram - Raw ADC Values</text>
</g>

<g fill="none" stroke="#000000" stroke-opacity="1" stroke-width="1" stroke-linecap="square" stroke-linejoin="bevel" transform="matrix(1,0,0,1,0,0)"
font-family="MS Shell Dlg 2" font-size="26.6667" font-weight="700" font-style="normal" 
>
</g>

<g fill="none" stroke="#000000" stroke-opacity="1" stroke-width="1" stroke-linecap="square" stroke-linejoin="bevel" transform="matrix(1,0,0,1,0,0)"
font-family="MS Shell Dlg 2" font-size="18.6667" font-weight="700" font-style="normal" 
>
</g>

<g fill="none" stroke="#000000" stroke-opacity="1" stroke-width="1" stroke-linecap="square" stroke-linejoin="bevel" transform="matrix(0,-1,1,0,3,687)"
font-family="MS Shell Dlg 2" font-size="21.3333" font-weight="400" font-style="normal" 
>
</g>

<g fill="none" stroke="#000000" stroke-opacity="1" stroke-width="1" stroke-linecap="square" stroke-linejoin="bevel" transform="matrix(0,-1,1,0,3,687)"
font-family="MS Shell Dlg 2" font-size="24" font-weight="700" font-style="normal" 
>
<text fill="#000000" fill-opacity="1" stroke="none" xml:space="preserve" x="262" y="24" font-family="MS Shell Dlg 2" font-size="24" font-weight="700" font-style="normal" 
 >Frequency</text>
</g>

<g fill="none" stroke="#000000" stroke-opacity="1" stroke-width="1" stroke-linecap="square" stroke-linejoin="bevel" transform="matrix(0,-1,1,0,3,687)"
font-family="MS Shell Dlg 2" font-size="21.3333" font-weight="400" font-style="normal" 
>
</g>

<g fill="none" stroke="#000000" stroke-opacity="1" stroke-width="1" stroke-linecap="square" stroke-linejoin="bevel" transform="matrix(1,0,0,1,0,0)"
font-family="MS Shell Dlg 2" font-size="18.6667" font-weight="700" font-style="normal" 
>
</g>

<g fill="none" stroke="#000000" stroke-opacity="1" stroke-width="1" stroke-linecap="square" stroke-linejoin="bevel" transform="matrix(1,0,0,1,0,0)"
font-family="MS Shell Dlg 2" font-size="21.3333" font-weight="400" font-style="normal" 
>
</g>

<g fill="none" stroke="#000000" stroke-opacity="1" stroke-width="1" stroke-linecap="square" stroke-linejoin="bevel" transform="matrix(1,0,0,1,58,670)"
font-family="MS Shell Dlg 2" font-size="21.3333" font-weight="400" font-style="normal" 
>
<text fill="#000000" fill-opacity="1" stroke="none" xml:space="preserve" x="0" y="15" font-family="MS Shell Dlg 2" font-size="21.3333" font-weight="400" font-style="normal" 
 >0</text>
</g>

<g fill="none" stroke="#000000" stroke-opacity="1" stroke-width="1" stroke-linecap="square" stroke-linejoin="bevel" transform="matrix(1,0,0,1,58,670)"
font-family="MS Shell Dlg 2" font-size="21.3333" font-weight="400" font-style="normal" 
>
</g>

<g fill="none" stroke="#000000" stroke-opacity="1" stroke-width="1" stroke-linecap="square" stroke-linejoin="bevel" transform="matrix(1,0,0,1,0,0)"
font-family="MS Shell Dlg 2" font-size="21.3333" font-weight="400" font-style="normal" 
>
</g>

<g fill="none" stroke="#000000" stroke-opacity="1" stroke-width="1" stroke-linecap="square" stroke-linejoin="bevel" transform="matrix(1,0,0,1,46,581)"
font-family="MS Shell Dlg 2" font-size="21.3333" font-weight="400" font-style="normal" 
>
<text fill="#000000" fill-opacity="1" stroke="none" xml:space="preserve" x="0" y="15" font-family="MS Shell Dlg 2" font-size="21.3333" font-weight="400" font-style="normal" 
 >50</text>
</g>

<g fill="none" stroke="#000000" stroke-opacity="1" stroke-width="1" stroke-linecap="square" stroke-linejoin="bevel" transform="matrix(1,0,0,1,46,581)"
font-family="MS Shell Dlg 2" font-size="21.3333" font-weight="400" font-style="normal" 
>
</g>

<g fill="none" stroke="#000000" stroke-opacity="1" stroke-width="1" stroke-linecap="square" stroke-linejoin="bevel" transform="matrix(1,0,0,1,0,0)"
font-family="MS Shell Dlg 2" font-size="21.3333" font-weight="400" font-style="normal" 
>
</g>

<g fill="none" stroke="#000000" stroke-opacity="1" stroke-width="1" stroke-linecap="square" stroke-linejoin="bevel" transform="matrix(1,0,0,1,34,490)"
font-family="MS Shell Dlg 2" font-size="21.3333" font-weight="400" font-style="normal" 
>
<text fill="#000000" fill-opacity="1" stroke="none" xml:space="preserve" x="0" y="15" font-family="MS Shell Dlg 2" font-size="21.3333" font-weight="400" font-style="normal" 
 >100</text>
</g>

<g fill="none" stroke="#000000" stroke-opacity="1" stroke-width="1" stroke-linecap="square" stroke-linejoin="bevel" transform="matrix(1,0,0,1,34,490)"
font-family="MS Shell Dlg 2" font-size="21.3333" font-weight="400" font-style="normal" 
>
</g>

<g fill="none" stroke="#000000" stroke-opacity="1" stroke-width="1" stroke-linecap="square" stroke-linejoin="bevel" transform="matrix(1,0,0,1,0,0)"
font-family="MS Shell Dlg 2" font-size="21.3333" font-weight="400" font-style="normal" 
>
</g>

<g fill="none" stroke="#000000" stroke-opacity="1" stroke-width="1" stroke-linecap="square" stroke-linejoin="bevel" transform="matrix(1,0,0,1,34,401)"
font-family="MS Shell Dlg 2" font-size="21.3333" font-weight="400" font-style="normal" 
>
<text fill="#000000" fill-opacity="1" stroke="none" xml:space="preserve" x="0" y="15" font-family="MS Shell Dlg 2" font-size="21.3333" font-weight="400" font-style="normal" 
 >150</text>
</g>

<g fill="none" stroke="#000000" stroke-opacity="1" stroke-width="1" stroke-linecap="square" stroke-linejoin="bevel" transform="matrix(1,0,0,1,34,401)"
font-family="MS Shell Dlg 2" font-size="21.3333" font-weight="400" font-style="normal" 
>
</g>

<g fill="none" stroke="#000000" stroke-opacity="1" stroke-width="1" stroke-linecap="square" stroke-linejoin="bevel" transform="matrix(1,0,0,1,0,0)"
font-family="MS Shell Dlg 2" font-size="21.3333" font-weight="400" font-style="normal" 
>
</g>

<g fill="none" stroke="#000000" stroke-opacity="1" stroke-width="1" stroke-linecap="square" stroke-linejoin="bevel" transform="matrix(1,0,0,1,34,310)"
font-family="MS Shell Dlg 2" font-size="21.3333" font-weight="400" font-style="normal" 
>
<text fill="#000000" fill-opacity="1" stroke="none" xml:space="preserve" x="0" y="15" font-family="MS Shell Dlg 2" font-size="21.3333" font-weight="400" font-style="normal" 
 >200</text>
</g>

<g fill="none" stroke="#000000" stroke-opacity="1" stroke-width="1" stroke-linecap="square" stroke-linejoin="bevel" transform="matrix(1,0,0,1,34,310)"
font-family="MS Shell Dlg 2" font-size="21.3333" font-weight="400" font-style="normal" 
>
</g>

<g fill="none" stroke="#000000" stroke-opacity="1" stroke-width="1" stroke-linecap="square" stroke-linejoin="bevel" transform="matrix(1,0,0,1,0,0)"
font-family="MS Shell Dlg 2" font-size="21.3333" font-weight="400" font-style="normal" 
>
</g>

<g fill="none" stroke="#000000" stroke-opacity="1" stroke-width="1" stroke-linecap="square" stroke-linejoin="bevel" transform="matrix(1,0,0,1,34,221)"
font-family="MS Shell Dlg 2" font-size="21.3333" font-weight="400" font-style="normal" 
>
<text fill="#000000" fill-opacity="1" stroke="none" xml:space="preserve" x="0" y="15" font-family="MS Shell Dlg 2" font-size="21.3333" font-weight="400" font-style="normal" 
 >250</text>
</g>

<g fill="none" stroke="#000000" stroke-opacity="1" stroke-width="1" stroke-linecap="square" stroke-linejoin="bevel" transform="matrix(1,0,0,1,34,221)"
font-family="MS Shell Dlg 2" font-size="21.3333" font-weight="400" font-style="normal" 
>
</g>

<g fill="none" stroke="#000000" stroke-opacity="1" stroke-width="1" stroke-linecap="square" stroke-linejoin="bevel" transform="matrix(1,0,0,1,0,0)"
font-family="MS Shell Dlg 2" font-size="21.3333" font-weight="400" font-style="normal" 
>
</g>

<g fill="none" stroke="#000000" stroke-opacity="1" stroke-width="1" stroke-linecap="square" stroke-linejoin="bevel" transform="matrix(1,0,0,1,34,130)"
font-family="MS Shell Dlg 2" font-size="21.3333" font-weight="400" font-style="normal" 
>
<text fill="#000000" fill-opacity="1" stroke="none" xml:space="preserve" x="0" y="15" font-family="MS Shell Dlg 2" font-size="21.3333" font-weight="400" font-style="normal" 
 >300</text>
</g>

<g fill="none" stroke="#000000" stroke-opacity="1" stroke-width="1" stroke-linecap="square" stroke-linejoin="bevel" transform="matrix(1,0,0,1,34,130)"
font-family="MS Shell Dlg 2" font-size="21.3333" font-weight="400" font-style="normal" 
>
</g>

<g fill="none" stroke="#000000" stroke-opacity="1" stroke-width="1" stroke-linecap="square" stroke-linejoin="bevel" transform="matrix(1,0,0,1,0,0)"
font-family="MS Shell Dlg 2" font-size="21.3333" font-weight="400" font-style="normal" 
>
</g>

<g fill="none" stroke="#000000" stroke-opacity="1" stroke-width="1" stroke-linecap="square" stroke-linejoin="bevel" transform="matrix(1,0,0,1,34,41)"
font-family="MS Shell Dlg 2" font-size="21.3333" font-weight="400" font-style="normal" 
>
<text fill="#000000" fill-opacity="1" stroke="none" xml:space="preserve" x="0" y="15" font-family="MS Shell Dlg 2" font-size="21.3333" font-weight="400" font-style="normal" 
 >350</text>
</g>

<g fill="none" stroke="#000000" stroke-opacity="1" stroke-width="1" stroke-linecap="square" stroke-linejoin="bevel" transform="matrix(1,0,0,1,34,41)"
font-family="MS Shell Dlg 2" font-size="21.3333" font-weight="400" font-style="normal" 
>
</g>

<g fill="none" stroke="#000000" stroke-opacity="1" stroke-width="1" stroke-linecap="square" stroke-linejoin="bevel" transform="matrix(1,0,0,1,0,0)"
font-family="MS Shell Dlg 2" font-size="21.3333" font-weight="400" font-style="normal" 
>
</g>

<g fill="none" stroke="#000000" stroke-opacity="1" stroke-width="1" stroke-linecap="square" stroke-linejoin="bevel" transform="matrix(1,0,0,1,0,0)"
font-family="MS Shell Dlg 2" font-size="21.3333" font-weight="400" font-style="normal" 
>
<polyline fill="none" vector-effect="none" points="82,661 78,661 " />
<polyline fill="none" vector-effect="none" points="82,643 78,643 " />
<polyline fill="none" vector-effect="none" points="82,625 78,625 " />
<polyline fill="none" vector-effect="none" points="82,607 78,607 " />
<polyline fill="none" vector-effect="none" points="82,571 78,571 " />
<polyline fill="none" vector-effect="none" points="82,553 78,553 " />
<polyline fill="none" vector-effect="none" points="82,535 78,535 " />
<polyline fill="none" vector-effect="none" points="82,517 78,517 " />
<polyline fill="none" vector-effect="none" points="82,481 78,481 " />
<polyline fill="none" vector-effect="none" points="82,463 78,463 " />
<polyline fill="none" vector-effect="none" points="82,445 78,445 " />
<polyline fill="none" vector-effect="none" points="82,427 78,427 " />
<polyline fill="none" vector-effect="none" points="82,391 78,391 " />
<polyline fill="none" vector-effect="none" points="82,373 78,373 " />
<polyline fill="none" vector-effect="none" points="82,356 78,356 " />
<polyline fill="none" vector-effect="none" points="82,338 78,338 " />
<polyline fill="none" vector-effect="none" points="82,302 78,302 " />
<polyline fill="none" vector-effect="none" points="82,284 78,284 " />
<polyline fill="none" vector-effect="none" points="82,266 78,266 " />
<polyline fill="none" vector-effect="none" points="82,248 78,248 " />
<polyline fill="none" vector-effect="none" points="82,212 78,212 " />
<polyline fill="none" vector-effect="none" points="82,194 78,194 " />
<polyline fill="none" vector-effect="none" points="82,176 78,176 " />
<polyline fill="none" vector-effect="none" points="82,158 78,158 " />
<polyline fill="none" vector-effect="none" points="82,122 78,122 " />
<polyline fill="none" vector-effect="none" points="82,104 78,104 " />
<polyline fill="none" vector-effect="none" points="82,86 78,86 " />
<polyline fill="none" vector-effect="none" points="82,68 78,68 " />
<polyline fill="none" vector-effect="none" points="82,679 75,679 " />
<polyline fill="none" vector-effect="none" points="82,589 75,589 " />
<polyline fill="none" vector-effect="none" points="82,499 75,499 " />
<polyline fill="none" vector-effect="none" points="82,409 75,409 " />
<polyline fill="none" vector-effect="none" points="82,320 75,320 " />
<polyline fill="none" vector-effect="none" points="82,230 75,230 " />
<polyline fill="none" vector-effect="none" points="82,140 75,140 " />
<polyline fill="none" vector-effect="none" points="82,50 75,50 " />
</g>

<g fill="none" stroke="#000000" stroke-opacity="1" stroke-width="1" stroke-linecap="square" stroke-linejoin="bevel" transform="matrix(1,0,0,1,0,0)"
font-family="MS Shell Dlg 2" font-size="21.3333" font-weight="400" font-style="normal" 
>
<polyline fill="none" vector-effect="none" points="82,50 82,678 " />
</g>

<g fill="none" stroke="#000000" stroke-opacity="1" stroke-width="1" stroke-linecap="square" stroke-linejoin="bevel" transform="matrix(1,0,0,1,0,0)"
font-family="MS Shell Dlg 2" font-size="21.3333" font-weight="400" font-style="normal" 
>
</g>

<g fill="none" stroke="#000000" stroke-opacity="1" stroke-width="1" stroke-linecap="square" stroke-linejoin="bevel" transform="matrix(1,0,0,1,0,0)"
font-family="MS Shell Dlg 2" font-size="18.6667" font-weight="700" font-style="normal" 
>
</g>

<g fill="none" stroke="#000000" stroke-opacity="1" stroke-width="1" stroke-linecap="square" stroke-linejoin="bevel" transform="matrix(1,0,0,1,60,680)"
font-family="MS Shell Dlg 2" font-size="21.3333" font-weight="400" font-style="normal" 
>
</g>

<g fill="none" stroke="#000000" stroke-opacity="1" stroke-width="1" stroke-linecap="square" stroke-linejoin="bevel" transform="matrix(1,0,0,1,60,680)"
font-family="MS Shell Dlg 2" font-size="24" font-weight="700" font-style="normal" 
>
<text fill="#000000" fill-opacity="1" stroke="none" xml:space="preserve" x="617" y="54" font-family="MS Shell Dlg 2" font-size="24" font-weight="700" font-style="normal" 
 >ADC Value</text>
</g>

<g fill="none" stroke="#000000" stroke-opacity="1" stroke-width="1" stroke-linecap="square" stroke-linejoin="bevel" transform="matrix(1,0,0,1,60,680)"
font-family="MS Shell Dlg 2" font-size="21.3333" font-weight="400" font-style="normal" 
>
</g>

<g fill="none" stroke="#000000" stroke-opacity="1" stroke-width="1" stroke-linecap="square" stroke-linejoin="bevel" transform="matrix(1,0,0,1,0,0)"
font-family="MS Shell Dlg 2" font-size="18.6667" font-weight="700" font-style="normal" 
>
</g>

<g fill="none" stroke="#000000" stroke-opacity="1" stroke-width="1" stroke-linecap="square" stroke-linejoin="bevel" transform="matrix(1,0,0,1,0,0)"
font-family="MS Shell Dlg 2" font-size="21.3333" font-weight="400" font-style="normal" 
>
</g>

<g fill="none" stroke="#000000" stroke-opacity="1" stroke-width="1" stroke-linecap="square" stroke-linejoin="bevel" transform="matrix(1,0,0,1,60,691)"
font-family="MS Shell Dlg 2" font-size="21.3333" font-weight="400" font-style="normal" 
>
<text fill="#000000" fill-opacity="1" stroke="none" xml:space="preserve" x="0" y="15" font-family="MS Shell Dlg 2" font-size="21.3333" font-weight="400" font-style="normal" 
 >-250</text>
</g>

<g fill="none" stroke="#000000" stroke-opacity="1" stroke-width="1" stroke-linecap="square" stroke-linejoin="bevel" transform="matrix(1,0,0,1,60,691)"
font-family="MS Shell Dlg 2" font-size="21.3333" font-weight="400" font-style="normal" 
>
</g>

<g fill="none" stroke="#000000" stroke-opacity="1" stroke-width="1" stroke-linecap="square" stroke-linejoin="bevel" transform="matrix(1,0,0,1,0,0)"
font-family="MS Shell Dlg 2" font-size="21.3333" font-weight="400" font-style="normal" 
>
</g>

<g fill="none" stroke="#000000" stroke-opacity="1" stroke-width="1" stroke-linecap="square" stroke-linejoin="bevel" transform="matrix(1,0,0,1,191,691)"
font-family="MS Shell Dlg 2" font-size="21.3333" font-weight="400" font-style="normal" 
>
<text fill="#000000" fill-opacity="1" stroke="none" xml:space="preserve" x="0" y="15" font-family="MS Shell Dlg 2" font-size="21.3333" font-weight="400" font-style="normal" 
 >-200</text>
</g>

<g fill="none" stroke="#000000" stroke-opacity="1" stroke-width="1" stroke-linecap="square" stroke-linejoin="bevel" transform="matrix(1,0,0,1,191,691)"
font-family="MS Shell Dlg 2" font-size="21.3333" font-weight="400" font-style="normal" 
>
</g>

<g fill="none" stroke="#000000" stroke-opacity="1" stroke-width="1" stroke-linecap="square" stroke-linejoin="bevel" transform="matrix(1,0,0,1,0,0)"
font-family="MS Shell Dlg 2" font-size="21.3333" font-weight="400" font-style="normal" 
>
</g>

<g fill="none" stroke="#000000" stroke-opacity="1" stroke-width="1" stroke-linecap="square" stroke-linejoin="bevel" transform="matrix(1,0,0,1,323,691)"
font-family="MS Shell Dlg 2" font-size="21.3333" font-weight="400" font-style="normal" 
>
<text fill="#000000" fill-opacity="1" stroke="none" xml:space="preserve" x="0" y="15" font-family="MS Shell Dlg 2" font-size="21.3333" font-weight="400" font-style="normal" 
 >-150</text>
</g>

<g fill="none" stroke="#000000" stroke-opacity="1" stroke-width="1" stroke-linecap="square" stroke-linejoin="bevel" transform="matrix(1,0,0,1,323,691)"
font-family="MS Shell Dlg 2" font-size="21.3333" font-weight="400" font-style="normal" 
>
</g>

<g fill="none" stroke="#000000" stroke-opacity="1" stroke-width="1" stroke-linecap="square" stroke-linejoin="bevel" transform="matrix(1,0,0,1,0,0)"
font-family="MS Shell Dlg 2" font-size="21.3333" font-weight="400" font-style="normal" 
>
</g>

<g fill="none" stroke="#000000" stroke-opacity="1" stroke-width="1" stroke-linecap="square" stroke-linejoin="bevel" transform="matrix(1,0,0,1,455,691)"
font-family="MS Shell Dlg 2" font-size="21.3333" font-weight="400" font-style="normal" 
>
<text fill="#000000" fill-opacity="1" stroke="none" xml:space="preserve" x="0" y="15" font-family="MS Shell Dlg 2" font-size="21.3333" font-weight="400" font-style="normal" 
 >-100</text>
</g>

<g fill="none" stroke="#000000" stroke-opacity="1" stroke-width="1" stroke-linecap="square" stroke-linejoin="bevel" transform="matrix(1,0,0,1,455,691)"
font-family="MS Shell Dlg 2" font-size="21.3333" font-weight="400" font-style="normal" 
>
</g>

<g fill="none" stroke="#000000" stroke-opacity="1" stroke-width="1" stroke-linecap="square" stroke-linejoin="bevel" transform="matrix(1,0,0,1,0,0)"
font-family="MS Shell Dlg 2" font-size="21.3333" font-weight="400" font-style="normal" 
>
</g>

<g fill="none" stroke="#000000" stroke-opacity="1" stroke-width="1" stroke-linecap="square" stroke-linejoin="bevel" transform="matrix(1,0,0,1,592,691)"
font-family="MS Shell Dlg 2" font-size="21.3333" font-weight="400" font-style="normal" 
>
<text fill="#000000" fill-opacity="1" stroke="none" xml:space="preserve" x="0" y="15" font-family="MS Shell Dlg 2" font-size="21.3333" font-weight="400" font-style="normal" 
 >-50</text>
</g>

<g fill="none" stroke="#000000" stroke-opacity="1" stroke-width="1" stroke-linecap="square" stroke-linejoin="bevel" transform="matrix(1,0,0,1,592,691)"
font-family="MS Shell Dlg 2" font-size="21.3333" font-weight="400" font-style="normal" 
>
</g>

<g fill="none" stroke="#000000" stroke-opacity="1" stroke-width="1" stroke-linecap="square" stroke-linejoin="bevel" transform="matrix(1,0,0,1,0,0)"
font-family="MS Shell Dlg 2" font-size="21.3333" font-weight="400" font-style="normal" 
>
</g>

<g fill="none" stroke="#000000" stroke-opacity="1" stroke-width="1" stroke-linecap="square" stroke-linejoin="bevel" transform="matrix(1,0,0,1,734,691)"
font-family="MS Shell Dlg 2" font-size="21.3333" font-weight="400" font-style="normal" 
>
<text fill="#000000" fill-opacity="1" stroke="none" xml:space="preserve" x="0" y="15" font-family="MS Shell Dlg 2" font-size="21.3333" font-weight="400" font-style="normal" 
 >0</text>
</g>

<g fill="none" stroke="#000000" stroke-opacity="1" stroke-width="1" stroke-linecap="square" stroke-linejoin="bevel" transform="matrix(1,0,0,1,734,691)"
font-family="MS Shell Dlg 2" font-size="21.3333" font-weight="400" font-style="normal" 
>
</g>

<g fill="none" stroke="#000000" stroke-opacity="1" stroke-width="1" stroke-linecap="square" stroke-linejoin="bevel" transform="matrix(1,0,0,1,0,0)"
font-family="MS Shell Dlg 2" font-size="21.3333" font-weight="400" font-style="normal" 
>
</g>

<g fill="none" stroke="#000000" stroke-opacity="1" stroke-width="1" stroke-linecap="square" stroke-linejoin="bevel" transform="matrix(1,0,0,1,859,691)"
font-family="MS Shell Dlg 2" font-size="21.3333" font-weight="400" font-style="normal" 
>
<text fill="#000000" fill-opacity="1" stroke="none" xml:space="preserve" x="0" y="15" font-family="MS Shell Dlg 2" font-size="21.3333" font-weight="400" font-style="normal" 
 >50</text>
</g>

<g fill="none" stroke="#000000" stroke-opacity="1" stroke-width="1" stroke-linecap="square" stroke-linejoin="bevel" transform="matrix(1,0,0,1,859,691)"
font-family="MS Shell Dlg 2" font-size="21.3333" font-weight="400" font-style="normal" 
>
</g>

<g fill="none" stroke="#000000" stroke-opacity="1" stroke-width="1" stroke-linecap="square" stroke-linejoin="bevel" transform="matrix(1,0,0,1,0,0)"
font-family="MS Shell Dlg 2" font-size="21.3333" font-weight="400" font-style="normal" 
>
</g>

<g fill="none" stroke="#000000" stroke-opacity="1" stroke-width="1" stroke-linecap="square" stroke-linejoin="bevel" transform="matrix(1,0,0,1,984,691)"
font-family="MS Shell Dlg 2" font-size="21.3333" font-weight="400" font-style="normal" 
>
<text fill="#000000" fill-opacity="1" stroke="none" xml:space="preserve" x="0" y="15" font-family="MS Shell Dlg 2" font-size="21.3333" font-weight="400" font-style="normal" 
 >100</text>
</g>

<g fill="none" stroke="#000000" stroke-opacity="1" stroke-width="1" stroke-linecap="square" stroke-linejoin="bevel" transform="matrix(1,0,0,1,984,691)"
font-family="MS Shell Dlg 2" font-size="21.3333" font-weight="400" font-style="normal" 
>
</g>

<g fill="none" stroke="#000000" stroke-opacity="1" stroke-width="1" stroke-linecap="square" stroke-linejoin="bevel" transform="matrix(1,0,0,1,0,0)"
font-family="MS Shell Dlg 2" font-size="21.3333" font-weight="400" font-style="normal" 
>
</g>

<g fill="none" stroke="#000000" stroke-opacity="1" stroke-width="1" stroke-linecap="square" stroke-linejoin="bevel" transform="matrix(1,0,0,1,1115,691)"
font-family="MS Shell Dlg 2" font-size="21.3333" font-weight="400" font-style="normal" 
>
<text fill="#000000" fill-opacity="1" stroke="none" xml:space="preserve" x="0" y="15" font-family="MS Shell Dlg 2" font-size="21.3333" font-weight="400" font-style="normal" 
 >150</text>
</g>

<g fill="none" stroke="#000000" stroke-opacity="1" stroke-width="1" stroke-linecap="square" stroke-linejoin="bevel" transform="matrix(1,0,0,1,1115,691)"
font-family="MS Shell Dlg 2" font-size="21.3333" font-weight="400" font-style="normal" 
>
</g>

<g fill="none" stroke="#000000" stroke-opacity="1" stroke-width="1" stroke-linecap="square" stroke-linejoin="bevel" transform="matrix(1,0,0,1,0,0)"
font-family="MS Shell Dlg 2" font-size="21.3333" font-weight="400" font-style="normal" 
>
</g>

<g fill="none" stroke="#000000" stroke-opacity="1" stroke-width="1" stroke-linecap="square" stroke-linejoin="bevel" transform="matrix(1,0,0,1,1247,691)"
font-family="MS Shell Dlg 2" font-size="21.3333" font-weight="400" font-style="normal" 
>
<text fill="#000000" fill-opacity="1" stroke="none" xml:space="preserve" x="0" y="15" font-family="MS Shell Dlg 2" font-size="21.3333" font-weight="400" font-style="normal" 
 >200</text>
</g>

<g fill="none" stroke="#000000" stroke-opacity="1" stroke-width="1" stroke-linecap="square" stroke-linejoin="bevel" transform="matrix(1,0,0,1,1247,691)"
font-family="MS Shell Dlg 2" font-size="21.3333" font-weight="400" font-style="normal" 
>
</g>

<g fill="none" stroke="#000000" stroke-opacity="1" stroke-width="1" stroke-linecap="square" stroke-linejoin="bevel" transform="matrix(1,0,0,1,0,0)"
font-family="MS Shell Dlg 2" font-size="21.3333" font-weight="400" font-style="normal" 
>
</g>

<g fill="none" stroke="#000000" stroke-opacity="1" stroke-width="1" stroke-linecap="square" stroke-linejoin="bevel" transform="matrix(1,0,0,1,1379,691)"
font-family="MS Shell Dlg 2" font-size="21.3333" font-weight="400" font-style="normal" 
>
<text fill="#000000" fill-opacity="1" stroke="none" xml:space="preserve" x="0" y="15" font-family="MS Shell Dlg 2" font-size="21.3333" font-weight="400" font-style="normal" 
 >250</text>
</g>

<g fill="none" stroke="#000000" stroke-opacity="1" stroke-width="1" stroke-linecap="square" stroke-linejoin="bevel" transform="matrix(1,0,0,1,1379,691)"
font-family="MS Shell Dlg 2" font-size="21.3333" font-weight="400" font-style="normal" 
>
</g>

<g fill="none" stroke="#000000" stroke-opacity="1" stroke-width="1" stroke-linecap="square" stroke-linejoin="bevel" transform="matrix(1,0,0,1,0,0)"
font-family="MS Shell Dlg 2" font-size="21.3333" font-weight="400" font-style="normal" 
>
</g>

<g fill="none" stroke="#000000" stroke-opacity="1" stroke-width="1" stroke-linecap="square" stroke-linejoin="bevel" transform="matrix(1,0,0,1,0,0)"
font-family="MS Shell Dlg 2" font-size="21.3333" font-weight="400" font-style="normal" 
>
<polyline fill="none" vector-effect="none" points="109,680 109,684 " />
<polyline fill="none" vector-effect="none" points="136,680 136,684 " />
<polyline fill="none" vector-effect="none" points="162,680 162,684 " />
<polyline fill="none" vector-effect="none" points="188,680 188,684 " />
<polyline fill="none" vector-effect="none" points="241,680 241,684 " />
<polyline fill="none" vector-effect="none" points="267,680 267,684 " />
<polyline fill="none" vector-effect="none" points="293,680 293,684 " />
<polyline fill="none" vector-effect="none" points="320,680 320,684 " />
<polyline fill="none" vector-effect="none" points="372,680 372,684 " />
<polyline fill="none" vector-effect="none" points="399,680 399,684 " />
<polyline fill="none" vector-effect="none" points="425,680 425,684 " />
<polyline fill="none" vector-effect="none" points="451,680 451,684 " />
<polyline fill="none" vector-effect="none" points="504,680 504,684 " />
<polyline fill="none" vector-effect="none" points="530,680 530,684 " />
<polyline fill="none" vector-effect="none" points="556,680 556,684 " />
<polyline fill="none" vector-effect="none" points="583,680 583,684 " />
<polyline fill="none" vector-effect="none" points="635,680 635,684 " />
<polyline fill="none" vector-effect="none" points="662,680 662,684 " />
<polyline fill="none" vector-effect="none" points="688,680 688,684 " />
<polyline fill="none" vector-effect="none" points="714,680 714,684 " />
<polyline fill="none" vector-effect="none" points="767,680 767,684 " />
<polyline fill="none" vector-effect="none" points="793,680 793,684 " />
<polyline fill="none" vector-effect="none" points="819,680 819,684 " />
<polyline fill="none" vector-effect="none" points="846,680 846,684 " />
<polyline fill="none" vector-effect="none" points="898,680 898,684 " />
<polyline fill="none" vector-effect="none" points="925,680 925,684 " />
<polyline fill="none" vector-effect="none" points="951,680 951,684 " />
<polyline fill="none" vector-effect="none" points="977,680 977,684 " />
<polyline fill="none" vector-effect="none" points="1030,680 1030,684 " />
<polyline fill="none" vector-effect="none" points="1056,680 1056,684 " />
<polyline fill="none" vector-effect="none" points="1082,680 1082,684 " />
<polyline fill="none" vector-effect="none" points="1109,680 1109,684 " />
<polyline fill="none" vector-effect="none" points="1161,680 1161,684 " />
<polyline fill="none" vector-effect="none" points="1188,680 1188,684 " />
<polyline fill="none" vector-effect="none" points="1214,680 1214,684 " />
<polyline fill="none" vector-effect="none" points="1240,680 1240,684 " />
<polyline fill="none" vector-effect="none" points="1293,680 1293,684 " />
<polyline fill="none" vector-effect="none" points="1319,680 1319,684 " />
<polyline fill="none" vector-effect="none" points="1345,680 1345,684 " />
<polyline fill="none" vector-effect="none" points="1372,680 1372,684 " />
<polyline fill="none" vector-effect="none" points="83,680 83,687 " />
<polyline fill="none" vector-effect="none" points="214,680 214,687 " />
<polyline fill="none" vector-effect="none" points="346,680 346,687 " />
<polyline fill="none" vector-effect="none" points="477,680 477,687 " />
<polyline fill="none" vector-effect="none" points="609,680 609,687 " />
<polyline fill="none" vector-effect="none" points="740,680 740,687 " />
<polyline fill="none" vector-effect="none" points="872,680 872,687 " />
<polyline fill="none" vector-effect="none" points="1003,680 1003,687 " />
<polyline fill="none" vector-effect="none" points="1135,680 1135,687 " />
<polyline fill="none" vector-effect="none" points="1266,680 1266,687 " />
<polyline fill="none" vector-effect="none" points="1398,680 1398,687 " />
</g>

<g fill="none" stroke="#000000" stroke-opacity="1" stroke-width="1" stroke-linecap="square" stroke-linejoin="bevel" transform="matrix(1,0,0,1,0,0)"
font-family="MS Shell Dlg 2" font-size="21.3333" font-weight="400" font-style="normal" 
>
<polyline fill="none" vector-effect="none" points="83,680 1397,680 " />
</g>

<g fill="none" stroke="#000000" stroke-opacity="1" stroke-width="1" stroke-linecap="square" stroke-linejoin="bevel" transform="matrix(1,0,0,1,0,0)"
font-family="MS Shell Dlg 2" font-size="21.3333" font-weight="400" font-style="normal" 
>
</g>

<g fill="none" stroke="#000000" stroke-opacity="1" stroke-width="1" stroke-linecap="square" stroke-linejoin="bevel" transform="matrix(1,0,0,1,0,0)"
font-family="MS Shell Dlg 2" font-size="18.6667" font-weight="700" font-style="normal" 
>
</g>

<g fill="#ffffff" fill-opacity="1" stroke="none" transform="matrix(1,0,0,1,0,0)"
font-family="MS Shell Dlg 2" font-size="18.6667" font-weight="700" font-style="normal" 
>
<rect x="83" y="50" width="1315" height="629"/>
</g>

<g fill="none" stroke="#000000" stroke-opacity="1" stroke-width="1" stroke-linecap="square" stroke-linejoin="bevel" transform="matrix(1,0,0,1,0,0)"
font-family="MS Shell Dlg 2" font-size="18.6667" font-weight="700" font-style="normal" 
>
</g>

<g fill="none" stroke="#000000" stroke-opacity="1" stroke-width="1" stroke-linecap="square" stroke-linejoin="bevel" transform="matrix(1,0,0,1,0,0)"
font-family="MS Shell Dlg 2" font-size="18.6667" font-weight="700" font-style="normal" 
>
</g>

<g fill="none" stroke="#000000" stroke-opacity="1" stroke-width="1" stroke-linecap="square" stroke-linejoin="bevel" transform="matrix(1,0,0,1,0,0)"
font-family="MS Shell Dlg 2" font-size="18.6667" font-weight="700" font-style="normal" 
>
</g>

<g fill="url(#fillpattern12_ff0000)" fill-opacity="1" stroke="#ff0000" stroke-opacity="1" stroke-width="1" stroke-linecap="butt" stroke-linejoin="bevel" transform="matrix(1,0,0,1,0,0)"
font-family="MS Shell Dlg 2" font-size="18.6667" font-weight="700" font-style="normal" 
>
<rect x="128" y="670" width="102" height="10"/>
<rect x="229" y="652" width="102" height="28"/>
<rect x="331" y="602" width="102" height="78"/>
<rect x="433" y="481" width="102" height="199"/>
<rect x="535" y="294" width="102" height="386"/>
<rect x="637" y="156" width="102" height="524"/>
<rect x="738" y="246" width="102" height="434"/>
<rect x="840" y="453" width="102" height="227"/>
<rect x="942" y="618" width="102" height="62"/>
<rect x="1044" y="670" width="102" height="10"/>
</g>

<g fill="none" stroke="#000000" stroke-opacity="1" stroke-width="1" stroke-linecap="square" stroke-linejoin="bevel" transform="matrix(1,0,0,1,0,0)"
font-family="MS Shell Dlg 2" font-size="18.6667" font-weight="700" font-style="normal" 
>
</g>

<g fill="none" stroke="#000000" stroke-opacity="1" stroke-width="1" stroke-linecap="square" stroke-linejoin="bevel" transform="matrix(1,0,0,1,0,0)"
font-family="MS Shell Dlg 2" font-size="18.6667" font-weight="700" font-style="normal" 
>
</g>

<g fill="none" stroke="#000000" stroke-opacity="1" stroke-width="1" stroke-linecap="round" stroke-linejoin="round" transform="matrix(1,0,0,1,0,0)"
font-family="MS Shell Dlg 2" font-size="18.6667" font-weight="700" font-style="normal" 
>
</g>

<g fill="none" stroke="#000000" stroke-opacity="1" stroke-width="1" stroke-linecap="square" stroke-linejoin="bevel" transform="matrix(1,0,0,1,0,0)"
font-family="MS Shell Dlg 2" font-size="18.6667" font-weight="700" font-style="normal" 
>
</g>

<g fill="none" stroke="#000000" stroke-opacity="1" stroke-width="1" stroke-linecap="square" stroke-linejoin="bevel" transform="matrix(1,0,0,1,0,0)"
font-family="MS Shell Dlg 2" font-size="10.6667" font-weight="400" font-style="normal" 
>
</g>
</g>
</svg>
